<svg width="347" height="113" viewBox="0 0 347 113" fill="none" xmlns="http://www.w3.org/2000/svg">
<path d="M3 106.7C18.699 89.0386 34.723 71.7223 52.5465 56.1484C52.8269 55.9034 62.4294 48.8571 62.4111 49.1501C62.3034 50.8733 58.5226 55.1235 57.8696 56.0739C53.929 61.8103 50.0711 67.6034 46.0321 73.2719C41.0106 80.3193 35.6066 87.064 30.3976 93.969C29.9492 94.5633 29.4912 95.1506 29.0575 95.7558C28.852 96.0425 29.6331 95.341 29.8764 95.0857C35.7205 88.9543 41.6298 82.8971 47.5955 76.8827C62.4525 61.9045 77.2969 46.8916 92.4144 32.1755C97.0898 27.6242 101.8 23.0765 106.709 18.7745C107.636 17.9619 108.538 17.1132 109.538 16.3921C111.519 14.9634 110.172 17.0181 109.687 17.7322C99.2894 33.0276 86.9181 47.2312 75.5515 61.8066C67.0079 72.762 57.0606 83.5485 49.7546 95.4208C49.3169 96.132 48.3557 97.5127 50.0152 96.5747C55.0885 93.7072 59.8634 88.9035 64.1979 85.1839C80.3974 71.2822 96.1741 56.8817 111.623 42.1518C113.34 40.5138 117.574 36.4137 119.514 34.7068C120.342 33.9786 121.183 33.26 122.083 32.6222C122.782 32.1266 124.386 30.9192 123.497 32.8828C120.975 38.4519 116.026 43.8565 112.441 48.6289C105.004 58.5314 97.4986 68.3903 89.9203 78.1856C82.5957 87.6531 74.624 96.6734 67.5481 106.328C67.1037 106.934 63.3991 111.589 67.2876 108.412C73.5901 103.264 79.4808 97.5054 85.4906 92.0333C101.816 77.1685 118.328 62.5127 134.665 47.6611C139.809 42.9847 144.934 38.2924 150.188 33.7389C151.951 32.2108 156.602 27.2704 155.697 29.4208C154.81 31.5283 152.898 33.0396 151.416 34.7812C144.572 42.8259 137.587 50.7529 130.607 58.6797C119.68 71.0898 108.423 83.2505 98.2215 96.2769C97.245 97.5239 95.2981 98.5735 95.4669 100.148C95.5032 100.488 96.144 99.9922 96.4347 99.8133C98.9225 98.2823 103.267 94.6364 104.959 93.2245C124.558 76.8744 143.314 59.441 162.323 42.4124C168.653 36.7418 174.964 29.3916 182.201 24.8049C183.913 23.7198 180.097 28.2921 178.776 29.8303C173.236 36.2849 167.677 42.7276 162.1 49.1501C154.507 57.893 146.438 66.2473 139.057 75.1704C138.337 76.0409 137.627 76.9199 136.936 77.8133C136.354 78.5645 134.428 80.0908 135.372 80.1957C135.783 80.2413 136.087 79.7778 136.414 79.5257C138.246 78.114 142.524 74.3456 143.673 73.3463C157.82 61.0491 172.021 48.8145 186.147 36.4936C191.494 31.8299 196.787 27.1204 201.968 22.2736C204.203 20.1822 206.506 17.5737 209.152 15.9454C213.599 13.2087 203.033 24.4249 199.622 28.3785C189.997 39.5355 180.278 50.6316 170.215 61.3971C167.817 63.9621 164.358 69.5744 161.132 71.1873" stroke="#00A0E9" stroke-width="5" stroke-linecap="round"/>
<path d="M165.822 63.1467C160.022 72.2087 151.304 79.5256 144.827 88.1619C142.28 91.5581 139.602 95.0569 137.457 98.7338C135.697 101.75 143.761 95.5602 146.391 93.2617C170.143 72.4973 191.897 49.4281 213.545 26.5173C216.747 23.1279 220.051 18.6985 223.856 15.9082C224.759 15.2462 222.587 17.7551 221.883 18.6256C216.531 25.2446 211.017 31.7337 205.578 38.2804C197.27 48.2811 189.048 58.3471 180.935 68.5071C177.859 72.3598 173.931 76.2255 171.406 80.4935C169.148 84.3099 178.911 75.7138 182.276 72.8252C196.957 60.2193 211.306 47.2242 225.903 34.5207C232.395 28.8715 238.891 23.1303 246.079 18.365C252.252 14.2731 249.48 18.6507 246.824 22.5714C228.614 49.4523 207.247 74.8469 185.849 99.2549C185.643 99.4904 178.02 108.613 177.436 108.189C176.3 107.363 178.828 105.74 179.67 104.615C182.538 100.785 186.332 96.2226 189.348 92.7033C208.558 70.2915 228.289 47.202 249.913 27.0384C250.813 26.1999 252.634 24.5316 253.822 23.7254C255.179 22.8047 253.847 24.3572 253.561 24.7305C247.817 32.253 241.443 39.3713 235.321 46.5816C227.235 56.1058 219.058 65.5517 210.864 74.9842C210.603 75.2854 199.639 87.9427 199.846 88.0874C201.072 88.9457 202.187 86.2167 203.27 85.1839C206.038 82.5445 212.411 76.1977 214.661 73.9419C225.944 62.631 237.021 51.1334 247.94 39.4716C253.757 33.2593 259.525 26.9869 265.585 21.008C266.762 19.8472 267.695 18.095 269.308 17.7322C269.551 17.6775 269.463 18.2406 269.382 18.4767C268.678 20.5431 266.099 24.5375 265.287 25.81C251.854 46.8602 236.039 66.3652 221.734 86.8218C221.217 87.5612 219.687 89.7733 220.32 89.1297C222.663 86.7453 224.7 84.0783 226.871 81.5358C241.046 64.9349 255.191 48.2939 269.792 32.0638C278.083 22.8469 302.674 -4.7484 296.072 5.74575C290.837 14.0686 283.913 21.5539 277.609 29.0486C268.426 39.9663 258.944 50.6323 249.802 61.5832C249.184 62.3228 242.684 68.8352 243.101 70.2939C243.368 71.2294 244.697 69.17 245.409 68.5071C247.398 66.6559 251.424 62.6349 253.077 60.9876C268.694 45.4268 283.915 29.155 300.502 14.6053C304.394 11.1918 302.302 14.091 300.353 16.4293C292.186 26.2298 283.508 35.611 275.226 45.3159C265.299 56.9484 255.522 68.7114 245.819 80.5308C240.998 86.403 235.465 92.1394 231.189 98.436C229.229 101.322 236.72 94.1587 239.23 91.7355C250.897 80.472 262.543 69.1873 274.221 57.9352C285.208 47.3493 296.303 36.8844 307.426 26.4428C308.979 24.9851 314.387 19.8726 316.286 18.1789C317.146 17.4111 318.016 16.6512 318.929 15.9454C320.639 14.6224 320.591 14.9221 319.301 16.541C306.342 32.8035 291.092 47.3202 277.162 62.7372C273.895 66.3531 270.875 70.1235 267.856 73.9419C264.737 77.8859 268.604 74.1637 270.127 73.0485C275.405 69.1835 281.242 63.7003 287.473 61.4343C287.737 61.3385 289.731 60.6682 289.186 61.7321C286.916 66.1627 282.742 70.141 279.656 73.9792C274.17 80.8032 269.081 87.9385 263.538 94.7135C250.179 111.041 292.163 63.7146 306.756 48.48C315.016 39.8563 323.288 31.2009 331.771 22.7948C331.88 22.6868 342.205 13.0432 339.551 17.7322C334.26 27.0795 325.456 34.8428 317.923 42.3751" stroke="#8FC31F" stroke-width="5" stroke-linecap="round"/>
<mask id="path-3-outside-1_12_32" maskUnits="userSpaceOnUse" x="30.5098" y="14" width="295" height="76" fill="black">
<rect fill="white" x="30.5098" y="14" width="295" height="76"/>
<path d="M67.7825 62.4205L71.9586 37.3636H84.0609L76.7882 81H65.1689L66.4757 73.0739H66.0211C64.6764 75.6307 62.7162 77.6856 60.1404 79.2386C57.5647 80.7917 54.6386 81.5682 51.362 81.5682C48.4454 81.5682 45.9833 80.9053 43.9757 79.5795C41.987 78.2538 40.5761 76.3693 39.7427 73.9261C38.9094 71.483 38.7673 68.5568 39.3166 65.1477L43.9757 37.3636H56.0779L51.8166 62.9886C51.4189 65.5644 51.7787 67.6004 52.8961 69.0966C54.0136 70.5928 55.7181 71.3409 58.0098 71.3409C59.4681 71.3409 60.8791 71.0095 62.2427 70.3466C63.6253 69.6648 64.8185 68.661 65.8223 67.3352C66.8261 66.0095 67.4795 64.3712 67.7825 62.4205ZM86.4686 81L93.7413 37.3636H105.474L104.196 44.9773H104.65C105.9 42.2689 107.577 40.2235 109.679 38.8409C111.8 37.4394 114.082 36.7386 116.525 36.7386C117.131 36.7386 117.766 36.7765 118.429 36.8523C119.111 36.9091 119.717 37.0038 120.247 37.1364L118.429 47.9034C117.898 47.714 117.141 47.5625 116.156 47.4489C115.19 47.3163 114.272 47.25 113.4 47.25C111.639 47.25 110.001 47.6383 108.486 48.4148C106.97 49.1723 105.692 50.233 104.65 51.5966C103.628 52.9602 102.955 54.5322 102.633 56.3125L98.5708 81H86.4686ZM140.964 22.8182L131.305 81H119.203L128.862 22.8182H140.964ZM171.483 37.3636L169.977 46.4545H143.67L145.204 37.3636H171.483ZM152.875 26.9091H164.977L158.216 67.5909C158.026 68.7083 158.055 69.5795 158.301 70.2045C158.547 70.8106 158.954 71.2367 159.523 71.483C160.11 71.7292 160.81 71.8523 161.625 71.8523C162.193 71.8523 162.771 71.8049 163.358 71.7102C163.945 71.5966 164.39 71.5114 164.693 71.4545L165.148 80.4602C164.466 80.6686 163.547 80.8958 162.392 81.142C161.256 81.3883 159.911 81.5398 158.358 81.5966C155.403 81.7102 152.903 81.322 150.858 80.4318C148.812 79.5227 147.345 78.1307 146.454 76.2557C145.564 74.3807 145.375 72.0227 145.886 69.1818L152.875 26.9091ZM191.398 81.8523C186.947 81.8523 183.263 80.9053 180.346 79.0114C177.43 77.0985 175.375 74.447 174.182 71.0568C173.007 67.6477 172.79 63.6799 173.528 59.1534C174.248 54.6837 175.744 50.7727 178.017 47.4205C180.29 44.0682 183.178 41.464 186.682 39.608C190.185 37.733 194.134 36.7955 198.528 36.7955C202.96 36.7955 206.634 37.7519 209.551 39.6648C212.468 41.5587 214.523 44.2102 215.716 47.6193C216.909 51.0284 217.136 54.9962 216.398 59.5227C215.659 63.9735 214.144 67.875 211.852 71.2273C209.56 74.5795 206.672 77.1932 203.187 79.0682C199.702 80.9242 195.773 81.8523 191.398 81.8523ZM192.591 72.4773C194.636 72.4773 196.445 71.8996 198.017 70.7443C199.608 69.5701 200.924 67.9792 201.966 65.9716C203.026 63.9451 203.765 61.6534 204.182 59.0966C204.598 56.5777 204.627 54.3428 204.267 52.392C203.907 50.4223 203.149 48.8693 201.994 47.733C200.858 46.5966 199.295 46.0284 197.307 46.0284C195.261 46.0284 193.443 46.6155 191.852 47.7898C190.261 48.9451 188.945 50.536 187.903 52.5625C186.862 54.589 186.132 56.8902 185.716 59.4659C185.318 61.9659 185.29 64.2008 185.631 66.1705C185.971 68.1212 186.72 69.6648 187.875 70.8011C189.03 71.9186 190.602 72.4773 192.591 72.4773ZM236.71 81.7102C233.377 81.7102 230.507 80.858 228.102 79.1534C225.716 77.4299 224.011 74.9015 222.988 71.5682C221.985 68.2159 221.89 64.1061 222.704 59.2386C223.538 54.2386 225.034 50.0814 227.193 46.767C229.352 43.4337 231.909 40.9432 234.863 39.2955C237.818 37.6288 240.896 36.7955 244.096 36.7955C246.521 36.7955 248.481 37.2121 249.977 38.0455C251.492 38.8598 252.657 39.8826 253.471 41.1136C254.286 42.3258 254.854 43.5189 255.176 44.6932H255.545L259.21 22.8182H271.284L261.625 81H249.693L250.858 74.0114H250.346C249.589 75.2235 248.585 76.4261 247.335 77.6193C246.104 78.7936 244.608 79.7689 242.846 80.5455C241.104 81.322 239.059 81.7102 236.71 81.7102ZM242.051 72.0795C243.983 72.0795 245.725 71.5492 247.278 70.4886C248.831 69.4091 250.138 67.9034 251.199 65.9716C252.259 64.0398 252.998 61.7765 253.415 59.1818C253.85 56.5871 253.86 54.3333 253.443 52.4205C253.026 50.5076 252.212 49.0303 251 47.9886C249.807 46.947 248.225 46.4261 246.256 46.4261C244.267 46.4261 242.506 46.9659 240.971 48.0455C239.456 49.125 238.197 50.6212 237.193 52.5341C236.208 54.447 235.507 56.6629 235.091 59.1818C234.674 61.7197 234.646 63.964 235.006 65.9148C235.365 67.8466 236.132 69.3617 237.307 70.4602C238.481 71.5398 240.062 72.0795 242.051 72.0795ZM291.319 81.8523C286.869 81.8523 283.185 80.9053 280.268 79.0114C277.352 77.0985 275.297 74.447 274.104 71.0568C272.929 67.6477 272.711 63.6799 273.45 59.1534C274.17 54.6837 275.666 50.7727 277.939 47.4205C280.211 44.0682 283.1 41.464 286.604 39.608C290.107 37.733 294.056 36.7955 298.45 36.7955C302.882 36.7955 306.556 37.7519 309.473 39.6648C312.39 41.5587 314.444 44.2102 315.638 47.6193C316.831 51.0284 317.058 54.9962 316.319 59.5227C315.581 63.9735 314.066 67.875 311.774 71.2273C309.482 74.5795 306.594 77.1932 303.109 79.0682C299.624 80.9242 295.694 81.8523 291.319 81.8523ZM292.513 72.4773C294.558 72.4773 296.367 71.8996 297.939 70.7443C299.53 69.5701 300.846 67.9792 301.888 65.9716C302.948 63.9451 303.687 61.6534 304.104 59.0966C304.52 56.5777 304.549 54.3428 304.189 52.392C303.829 50.4223 303.071 48.8693 301.916 47.733C300.78 46.5966 299.217 46.0284 297.229 46.0284C295.183 46.0284 293.365 46.6155 291.774 47.7898C290.183 48.9451 288.867 50.536 287.825 52.5625C286.783 54.589 286.054 56.8902 285.638 59.4659C285.24 61.9659 285.211 64.2008 285.552 66.1705C285.893 68.1212 286.641 69.6648 287.797 70.8011C288.952 71.9186 290.524 72.4773 292.513 72.4773Z"/>
</mask>
<path d="M67.7825 62.4205L71.9586 37.3636H84.0609L76.7882 81H65.1689L66.4757 73.0739H66.0211C64.6764 75.6307 62.7162 77.6856 60.1404 79.2386C57.5647 80.7917 54.6386 81.5682 51.362 81.5682C48.4454 81.5682 45.9833 80.9053 43.9757 79.5795C41.987 78.2538 40.5761 76.3693 39.7427 73.9261C38.9094 71.483 38.7673 68.5568 39.3166 65.1477L43.9757 37.3636H56.0779L51.8166 62.9886C51.4189 65.5644 51.7787 67.6004 52.8961 69.0966C54.0136 70.5928 55.7181 71.3409 58.0098 71.3409C59.4681 71.3409 60.8791 71.0095 62.2427 70.3466C63.6253 69.6648 64.8185 68.661 65.8223 67.3352C66.8261 66.0095 67.4795 64.3712 67.7825 62.4205ZM86.4686 81L93.7413 37.3636H105.474L104.196 44.9773H104.65C105.9 42.2689 107.577 40.2235 109.679 38.8409C111.8 37.4394 114.082 36.7386 116.525 36.7386C117.131 36.7386 117.766 36.7765 118.429 36.8523C119.111 36.9091 119.717 37.0038 120.247 37.1364L118.429 47.9034C117.898 47.714 117.141 47.5625 116.156 47.4489C115.19 47.3163 114.272 47.25 113.4 47.25C111.639 47.25 110.001 47.6383 108.486 48.4148C106.97 49.1723 105.692 50.233 104.65 51.5966C103.628 52.9602 102.955 54.5322 102.633 56.3125L98.5708 81H86.4686ZM140.964 22.8182L131.305 81H119.203L128.862 22.8182H140.964ZM171.483 37.3636L169.977 46.4545H143.67L145.204 37.3636H171.483ZM152.875 26.9091H164.977L158.216 67.5909C158.026 68.7083 158.055 69.5795 158.301 70.2045C158.547 70.8106 158.954 71.2367 159.523 71.483C160.11 71.7292 160.81 71.8523 161.625 71.8523C162.193 71.8523 162.771 71.8049 163.358 71.7102C163.945 71.5966 164.39 71.5114 164.693 71.4545L165.148 80.4602C164.466 80.6686 163.547 80.8958 162.392 81.142C161.256 81.3883 159.911 81.5398 158.358 81.5966C155.403 81.7102 152.903 81.322 150.858 80.4318C148.812 79.5227 147.345 78.1307 146.454 76.2557C145.564 74.3807 145.375 72.0227 145.886 69.1818L152.875 26.9091ZM191.398 81.8523C186.947 81.8523 183.263 80.9053 180.346 79.0114C177.43 77.0985 175.375 74.447 174.182 71.0568C173.007 67.6477 172.79 63.6799 173.528 59.1534C174.248 54.6837 175.744 50.7727 178.017 47.4205C180.29 44.0682 183.178 41.464 186.682 39.608C190.185 37.733 194.134 36.7955 198.528 36.7955C202.96 36.7955 206.634 37.7519 209.551 39.6648C212.468 41.5587 214.523 44.2102 215.716 47.6193C216.909 51.0284 217.136 54.9962 216.398 59.5227C215.659 63.9735 214.144 67.875 211.852 71.2273C209.56 74.5795 206.672 77.1932 203.187 79.0682C199.702 80.9242 195.773 81.8523 191.398 81.8523ZM192.591 72.4773C194.636 72.4773 196.445 71.8996 198.017 70.7443C199.608 69.5701 200.924 67.9792 201.966 65.9716C203.026 63.9451 203.765 61.6534 204.182 59.0966C204.598 56.5777 204.627 54.3428 204.267 52.392C203.907 50.4223 203.149 48.8693 201.994 47.733C200.858 46.5966 199.295 46.0284 197.307 46.0284C195.261 46.0284 193.443 46.6155 191.852 47.7898C190.261 48.9451 188.945 50.536 187.903 52.5625C186.862 54.589 186.132 56.8902 185.716 59.4659C185.318 61.9659 185.29 64.2008 185.631 66.1705C185.971 68.1212 186.72 69.6648 187.875 70.8011C189.03 71.9186 190.602 72.4773 192.591 72.4773ZM236.71 81.7102C233.377 81.7102 230.507 80.858 228.102 79.1534C225.716 77.4299 224.011 74.9015 222.988 71.5682C221.985 68.2159 221.89 64.1061 222.704 59.2386C223.538 54.2386 225.034 50.0814 227.193 46.767C229.352 43.4337 231.909 40.9432 234.863 39.2955C237.818 37.6288 240.896 36.7955 244.096 36.7955C246.521 36.7955 248.481 37.2121 249.977 38.0455C251.492 38.8598 252.657 39.8826 253.471 41.1136C254.286 42.3258 254.854 43.5189 255.176 44.6932H255.545L259.21 22.8182H271.284L261.625 81H249.693L250.858 74.0114H250.346C249.589 75.2235 248.585 76.4261 247.335 77.6193C246.104 78.7936 244.608 79.7689 242.846 80.5455C241.104 81.322 239.059 81.7102 236.71 81.7102ZM242.051 72.0795C243.983 72.0795 245.725 71.5492 247.278 70.4886C248.831 69.4091 250.138 67.9034 251.199 65.9716C252.259 64.0398 252.998 61.7765 253.415 59.1818C253.85 56.5871 253.86 54.3333 253.443 52.4205C253.026 50.5076 252.212 49.0303 251 47.9886C249.807 46.947 248.225 46.4261 246.256 46.4261C244.267 46.4261 242.506 46.9659 240.971 48.0455C239.456 49.125 238.197 50.6212 237.193 52.5341C236.208 54.447 235.507 56.6629 235.091 59.1818C234.674 61.7197 234.646 63.964 235.006 65.9148C235.365 67.8466 236.132 69.3617 237.307 70.4602C238.481 71.5398 240.062 72.0795 242.051 72.0795ZM291.319 81.8523C286.869 81.8523 283.185 80.9053 280.268 79.0114C277.352 77.0985 275.297 74.447 274.104 71.0568C272.929 67.6477 272.711 63.6799 273.45 59.1534C274.17 54.6837 275.666 50.7727 277.939 47.4205C280.211 44.0682 283.1 41.464 286.604 39.608C290.107 37.733 294.056 36.7955 298.45 36.7955C302.882 36.7955 306.556 37.7519 309.473 39.6648C312.39 41.5587 314.444 44.2102 315.638 47.6193C316.831 51.0284 317.058 54.9962 316.319 59.5227C315.581 63.9735 314.066 67.875 311.774 71.2273C309.482 74.5795 306.594 77.1932 303.109 79.0682C299.624 80.9242 295.694 81.8523 291.319 81.8523ZM292.513 72.4773C294.558 72.4773 296.367 71.8996 297.939 70.7443C299.53 69.5701 300.846 67.9792 301.888 65.9716C302.948 63.9451 303.687 61.6534 304.104 59.0966C304.52 56.5777 304.549 54.3428 304.189 52.392C303.829 50.4223 303.071 48.8693 301.916 47.733C300.78 46.5966 299.217 46.0284 297.229 46.0284C295.183 46.0284 293.365 46.6155 291.774 47.7898C290.183 48.9451 288.867 50.536 287.825 52.5625C286.783 54.589 286.054 56.8902 285.638 59.4659C285.24 61.9659 285.211 64.2008 285.552 66.1705C285.893 68.1212 286.641 69.6648 287.797 70.8011C288.952 71.9186 290.524 72.4773 292.513 72.4773Z" fill="white"/>
<path d="M67.7825 62.4205L59.8913 61.1053L59.8841 61.1488L59.8773 61.1925L67.7825 62.4205ZM71.9586 37.3636V29.3636H65.1816L64.0675 36.0484L71.9586 37.3636ZM84.0609 37.3636L91.9521 38.6788L93.5046 29.3636H84.0609V37.3636ZM76.7882 81V89H83.5652L84.6793 82.3152L76.7882 81ZM65.1689 81L57.2754 79.6986L55.7419 89H65.1689V81ZM66.4757 73.0739L74.3691 74.3753L75.9027 65.0739H66.4757V73.0739ZM66.0211 73.0739V65.0739H61.1896L58.9406 69.3501L66.0211 73.0739ZM60.1404 79.2386L64.2712 86.0897L60.1404 79.2386ZM43.9757 79.5795L39.5381 86.2359L39.5526 86.2456L39.5672 86.2553L43.9757 79.5795ZM39.7427 73.9261L32.171 76.5087H32.171L39.7427 73.9261ZM39.3166 65.1477L31.4267 63.8247L31.4225 63.85L31.4184 63.8752L39.3166 65.1477ZM43.9757 37.3636V29.3636H37.2055L36.0858 36.0406L43.9757 37.3636ZM56.0779 37.3636L63.9696 38.676L65.5182 29.3636H56.0779V37.3636ZM51.8166 62.9886L43.925 61.6763L43.9174 61.722L43.9103 61.7678L51.8166 62.9886ZM52.8961 69.0966L59.3059 64.3096L52.8961 69.0966ZM62.2427 70.3466L65.7403 77.5415L65.7607 77.5316L65.7811 77.5216L62.2427 70.3466ZM65.8223 67.3352L59.4442 62.5061L59.4442 62.5061L65.8223 67.3352ZM75.6736 63.7356L79.8498 38.6788L64.0675 36.0484L59.8913 61.1053L75.6736 63.7356ZM71.9586 45.3636H84.0609V29.3636H71.9586V45.3636ZM76.1698 36.0484L68.897 79.6848L84.6793 82.3152L91.9521 38.6788L76.1698 36.0484ZM76.7882 73H65.1689V89H76.7882V73ZM73.0623 82.3014L74.3691 74.3753L58.5822 71.7724L57.2754 79.6986L73.0623 82.3014ZM66.4757 65.0739H66.0211V81.0739H66.4757V65.0739ZM58.9406 69.3501C58.3041 70.5603 57.3892 71.5559 56.0097 72.3876L64.2712 86.0897C68.0433 83.8154 71.0487 80.7011 73.1016 76.7977L58.9406 69.3501ZM56.0097 72.3876C54.791 73.1224 53.3173 73.5682 51.362 73.5682V89.5682C55.9598 89.5682 60.3384 88.461 64.2712 86.0897L56.0097 72.3876ZM51.362 73.5682C49.6765 73.5682 48.8287 73.1974 48.3842 72.9038L39.5672 86.2553C43.1378 88.6132 47.2142 89.5682 51.362 89.5682V73.5682ZM48.4133 72.9231C48.009 72.6536 47.628 72.2629 47.3144 71.3436L32.171 76.5087C33.5241 80.4758 35.9651 83.854 39.5381 86.2359L48.4133 72.9231ZM47.3144 71.3436C47.0221 70.4866 46.8063 68.9555 47.2147 66.4202L31.4184 63.8752C30.7284 68.1581 30.7967 72.4793 32.171 76.5087L47.3144 71.3436ZM47.2064 66.4708L51.8655 38.6867L36.0858 36.0406L31.4267 63.8247L47.2064 66.4708ZM43.9757 45.3636H56.0779V29.3636H43.9757V45.3636ZM48.1863 36.0513L43.925 61.6763L59.7082 64.301L63.9696 38.676L48.1863 36.0513ZM43.9103 61.7678C43.317 65.6102 43.6449 70.0788 46.4864 73.8836L59.3059 64.3096C59.4283 64.4735 59.5189 64.6389 59.5806 64.7865C59.6411 64.9311 59.6614 65.0287 59.6661 65.0551C59.6703 65.0787 59.6589 65.0278 59.6601 64.885C59.6612 64.7413 59.675 64.5195 59.7229 64.2095L43.9103 61.7678ZM46.4864 73.8836C49.46 77.8652 53.8347 79.3409 58.0098 79.3409V63.3409C57.7217 63.3409 57.8609 63.2933 58.2277 63.4543C58.4125 63.5354 58.6194 63.6546 58.8239 63.8172C59.0282 63.9797 59.1886 64.1526 59.3059 64.3096L46.4864 73.8836ZM58.0098 79.3409C60.7284 79.3409 63.3313 78.7125 65.7403 77.5415L58.7452 63.1516C58.4268 63.3064 58.2078 63.3409 58.0098 63.3409V79.3409ZM65.7811 77.5216C68.3662 76.2467 70.5057 74.4025 72.2003 72.1643L59.4442 62.5061C59.1312 62.9195 58.8844 63.0828 58.7044 63.1716L65.7811 77.5216ZM72.2003 72.1643C74.1404 69.602 75.2194 66.6629 75.6877 63.6484L59.8773 61.1925C59.7395 62.0795 59.5117 62.417 59.4442 62.5061L72.2003 72.1643ZM86.4686 81L78.5774 79.6848L77.0249 89H86.4686V81ZM93.7413 37.3636V29.3636H86.9643L85.8501 36.0484L93.7413 37.3636ZM105.474 37.3636L113.364 38.6884L114.93 29.3636H105.474V37.3636ZM104.196 44.9773L96.3063 43.6525L94.7406 52.9773H104.196V44.9773ZM104.65 44.9773V52.9773H109.769L111.914 48.3297L104.65 44.9773ZM109.679 38.8409L114.075 45.525L114.082 45.5203L114.089 45.5156L109.679 38.8409ZM118.429 36.8523L117.52 44.8005L117.642 44.8145L117.764 44.8246L118.429 36.8523ZM120.247 37.1364L128.135 38.4684L129.368 31.1703L122.187 29.3752L120.247 37.1364ZM118.429 47.9034L115.738 55.4373L124.728 58.6479L126.317 49.2355L118.429 47.9034ZM116.156 47.4489L115.068 55.3746L115.154 55.3863L115.239 55.3961L116.156 47.4489ZM108.486 48.4148L112.063 55.5702L112.099 55.5524L112.134 55.5342L108.486 48.4148ZM104.65 51.5966L98.293 46.7403L98.2716 46.7683L98.2504 46.7966L104.65 51.5966ZM102.633 56.3125L94.7611 54.8888L94.7498 54.9511L94.7395 55.0135L102.633 56.3125ZM98.5708 81V89H105.362L106.465 82.299L98.5708 81ZM94.3597 82.3152L101.632 38.6788L85.8501 36.0484L78.5774 79.6848L94.3597 82.3152ZM93.7413 45.3636H105.474V29.3636H93.7413V45.3636ZM97.5847 36.0389L96.3063 43.6525L112.085 46.302L113.364 38.6884L97.5847 36.0389ZM104.196 52.9773H104.65V36.9773H104.196V52.9773ZM111.914 48.3297C112.655 46.7234 113.436 45.9451 114.075 45.525L105.283 32.1568C101.717 34.5019 99.1453 37.8145 97.3867 41.6248L111.914 48.3297ZM114.089 45.5156C114.958 44.9414 115.716 44.7386 116.525 44.7386V28.7386C112.448 28.7386 108.642 29.9373 105.269 32.1662L114.089 45.5156ZM116.525 44.7386C116.799 44.7386 117.129 44.7558 117.52 44.8005L119.337 28.904C118.402 28.7972 117.463 28.7386 116.525 28.7386V44.7386ZM117.764 44.8246C118.118 44.8541 118.284 44.8919 118.307 44.8975L122.187 29.3752C121.149 29.1157 120.103 28.9641 119.093 28.8799L117.764 44.8246ZM112.359 35.8043L110.54 46.5713L126.317 49.2355L128.135 38.4684L112.359 35.8043ZM121.119 40.3695C119.741 39.877 118.28 39.6409 117.073 39.5016L115.239 55.3961C115.571 55.4344 115.781 55.4698 115.894 55.4924C115.948 55.5031 115.961 55.5074 115.941 55.5021C115.923 55.4973 115.851 55.4777 115.738 55.4373L121.119 40.3695ZM117.244 39.5232C115.959 39.3469 114.675 39.25 113.4 39.25V55.25C113.868 55.25 114.421 55.2857 115.068 55.3746L117.244 39.5232ZM113.4 39.25C110.416 39.25 107.521 39.9197 104.837 41.2953L112.134 55.5342C112.481 55.3568 112.863 55.25 113.4 55.25V39.25ZM104.908 41.2594C102.289 42.569 100.064 44.4217 98.293 46.7403L111.008 56.4529C111.32 56.0442 111.652 55.7757 112.063 55.5702L104.908 41.2594ZM98.2504 46.7966C96.4353 49.2167 95.2906 51.961 94.7611 54.8888L110.506 57.7362C110.62 57.1034 110.82 56.7038 111.05 56.3966L98.2504 46.7966ZM94.7395 55.0135L90.677 79.701L106.465 82.299L110.527 57.6115L94.7395 55.0135ZM98.5708 73H86.4686V89H98.5708V73ZM140.964 22.8182L148.856 24.1284L150.402 14.8182H140.964V22.8182ZM131.305 81V89H138.087L139.197 82.3102L131.305 81ZM119.203 81L111.311 79.6898L109.765 89H119.203V81ZM128.862 22.8182V14.8182H122.081L120.97 21.508L128.862 22.8182ZM133.072 21.508L123.413 79.6898L139.197 82.3102L148.856 24.1284L133.072 21.508ZM131.305 73H119.203V89H131.305V73ZM127.095 82.3102L136.754 24.1284L120.97 21.508L111.311 79.6898L127.095 82.3102ZM128.862 30.8182H140.964V14.8182H128.862V30.8182ZM171.483 37.3636L179.375 38.6708L180.917 29.3636H171.483V37.3636ZM169.977 46.4545V54.4545H176.761L177.87 47.7617L169.977 46.4545ZM143.67 46.4545L135.782 45.1234L134.207 54.4545H143.67V46.4545ZM145.204 37.3636V29.3636H138.441L137.316 36.0325L145.204 37.3636ZM152.875 26.9091V18.9091H146.089L144.982 25.6042L152.875 26.9091ZM164.977 26.9091L172.869 28.2207L174.416 18.9091H164.977V26.9091ZM158.216 67.5909L166.103 68.9278L166.105 68.9152L166.107 68.9025L158.216 67.5909ZM158.301 70.2045L150.858 73.1367L150.873 73.1762L150.889 73.2156L158.301 70.2045ZM159.523 71.483L156.342 78.8234L156.385 78.8422L156.429 78.8605L159.523 71.483ZM163.358 71.7102L164.632 79.6082L164.755 79.5882L164.878 79.5645L163.358 71.7102ZM164.693 71.4545L172.683 71.0513L172.221 61.9036L163.219 63.5916L164.693 71.4545ZM165.148 80.4602L167.485 88.111L173.452 86.2879L173.137 80.057L165.148 80.4602ZM162.392 81.142L160.724 73.3178L160.711 73.3206L160.698 73.3235L162.392 81.142ZM158.358 81.5966L158.065 73.6019L158.058 73.6022L158.05 73.6025L158.358 81.5966ZM150.858 80.4318L147.609 87.7423L147.637 87.7549L147.665 87.7673L150.858 80.4318ZM146.454 76.2557L153.681 72.8247L146.454 76.2557ZM145.886 69.1818L153.76 70.599L153.77 70.5429L153.779 70.4867L145.886 69.1818ZM163.59 36.0564L162.085 45.1474L177.87 47.7617L179.375 38.6708L163.59 36.0564ZM169.977 38.4545H143.67V54.4545H169.977V38.4545ZM151.559 47.7857L153.093 38.6948L137.316 36.0325L135.782 45.1234L151.559 47.7857ZM145.204 45.3636H171.483V29.3636H145.204V45.3636ZM152.875 34.9091H164.977V18.9091H152.875V34.9091ZM157.085 25.5975L150.324 66.2793L166.107 68.9025L172.869 28.2207L157.085 25.5975ZM150.328 66.254C150.043 67.9339 149.826 70.5174 150.858 73.1367L165.744 67.2723C166.04 68.0232 166.084 68.5999 166.091 68.8217C166.098 69.0523 166.073 69.1067 166.103 68.9278L150.328 66.254ZM150.889 73.2156C151.875 75.6419 153.734 77.6933 156.342 78.8234L162.703 64.1425C163.349 64.4222 164.004 64.8539 164.575 65.4518C165.14 66.0433 165.498 66.6654 165.713 67.1935L150.889 73.2156ZM156.429 78.8605C158.228 79.6149 160.033 79.8523 161.625 79.8523V63.8523C161.588 63.8523 161.992 63.8434 162.616 64.1054L156.429 78.8605ZM161.625 79.8523C162.639 79.8523 163.643 79.7676 164.632 79.6082L162.084 63.8123C161.898 63.8422 161.747 63.8523 161.625 63.8523V79.8523ZM164.878 79.5645C165.461 79.4516 165.888 79.3699 166.167 79.3175L163.219 63.5916C162.892 63.6528 162.429 63.7416 161.838 63.856L164.878 79.5645ZM156.703 71.8578L157.158 80.8635L173.137 80.057L172.683 71.0513L156.703 71.8578ZM162.81 72.8094C162.445 72.921 161.78 73.0929 160.724 73.3178L164.059 88.9663C165.315 88.6988 166.487 88.4161 167.485 88.111L162.81 72.8094ZM160.698 73.3235C160.147 73.4429 159.293 73.557 158.065 73.6019L158.65 89.5912C160.528 89.5225 162.364 89.3336 164.086 88.9606L160.698 73.3235ZM158.05 73.6025C155.923 73.6843 154.695 73.3771 154.05 73.0963L147.665 87.7673C151.111 89.2668 154.883 89.7362 158.665 89.5907L158.05 73.6025ZM154.107 73.1213C153.828 72.9975 153.734 72.9075 153.728 72.9013C153.721 72.8947 153.719 72.8922 153.717 72.8895C153.715 72.8865 153.702 72.8682 153.681 72.8247L139.227 79.6866C141.004 83.4294 143.964 86.1226 147.609 87.7423L154.107 73.1213ZM153.681 72.8247C153.739 72.9457 153.432 72.421 153.76 70.599L138.013 67.7646C137.318 71.6245 137.39 75.8157 139.227 79.6866L153.681 72.8247ZM153.779 70.4867L160.768 28.214L144.982 25.6042L137.993 67.8769L153.779 70.4867ZM180.346 79.0114L175.959 85.701L175.974 85.711L175.99 85.7209L180.346 79.0114ZM174.182 71.0568L166.618 73.6622L166.626 73.6875L166.635 73.7128L174.182 71.0568ZM173.528 59.1534L181.424 60.4418L181.425 60.4335L181.426 60.4252L173.528 59.1534ZM178.017 47.4205L171.395 42.9312L178.017 47.4205ZM186.682 39.608L190.426 46.6773L190.441 46.6694L190.456 46.6615L186.682 39.608ZM209.551 39.6648L205.164 46.3544L205.179 46.3644L205.194 46.3743L209.551 39.6648ZM215.716 47.6193L208.165 50.2621L208.165 50.2621L215.716 47.6193ZM216.398 59.5227L224.29 60.8325L224.291 60.8218L224.293 60.8111L216.398 59.5227ZM211.852 71.2273L205.248 66.7125V66.7125L211.852 71.2273ZM203.187 79.0682L206.948 86.1291L206.963 86.1212L206.978 86.1132L203.187 79.0682ZM198.017 70.7443L202.755 77.1906L202.761 77.1858L202.768 77.1809L198.017 70.7443ZM201.966 65.9716L194.878 62.262L194.871 62.2745L194.865 62.2871L201.966 65.9716ZM204.182 59.0966L196.289 57.791L196.287 57.8004L196.286 57.8099L204.182 59.0966ZM204.267 52.392L196.397 53.8298L196.4 53.8433L204.267 52.392ZM201.994 47.733L196.337 53.3898L196.361 53.4132L196.384 53.4364L201.994 47.733ZM191.852 47.7898L196.553 54.263L196.578 54.2448L196.603 54.2264L191.852 47.7898ZM185.716 59.4659L177.818 58.1884L177.817 58.1987L177.815 58.209L185.716 59.4659ZM185.631 66.1705L177.748 67.5348L177.75 67.5476L185.631 66.1705ZM187.875 70.8011L182.265 76.5045L182.289 76.5281L182.313 76.5515L187.875 70.8011ZM191.398 73.8523C188.064 73.8523 186.005 73.1469 184.703 72.3018L175.99 85.7209C180.521 88.6637 185.829 89.8523 191.398 89.8523V73.8523ZM184.734 72.3217C183.331 71.4018 182.358 70.1907 181.728 68.4009L166.635 73.7128C168.392 78.7033 171.528 82.7952 175.959 85.701L184.734 72.3217ZM181.746 68.4515C181.104 66.5876 180.842 64.0097 181.424 60.4418L165.633 57.865C164.738 63.3501 164.911 68.7078 166.618 73.6622L181.746 68.4515ZM181.426 60.4252C181.983 56.9716 183.095 54.1871 184.639 51.9097L171.395 42.9312C168.394 47.3583 166.513 52.3958 165.63 57.8817L181.426 60.4252ZM184.639 51.9097C186.194 49.6155 188.104 47.9078 190.426 46.6773L182.937 32.5386C178.252 35.0202 174.385 38.5209 171.395 42.9312L184.639 51.9097ZM190.456 46.6615C192.68 45.4715 195.309 44.7955 198.528 44.7955V28.7955C192.959 28.7955 187.691 29.9944 182.907 32.5544L190.456 46.6615ZM198.528 44.7955C201.821 44.7955 203.862 45.5007 205.164 46.3544L213.938 32.9751C209.407 30.0031 204.099 28.7955 198.528 28.7955V44.7955ZM205.194 46.3743C206.565 47.2643 207.533 48.4554 208.165 50.2621L223.267 44.9765C221.513 39.9651 218.371 35.8531 213.908 32.9552L205.194 46.3743ZM208.165 50.2621C208.813 52.1147 209.082 54.6784 208.502 58.2343L224.293 60.8111C225.19 55.314 225.005 49.9421 223.267 44.9765L208.165 50.2621ZM208.505 58.213C207.936 61.643 206.812 64.4241 205.248 66.7125L218.456 75.7421C221.475 71.3259 223.382 66.304 224.29 60.8325L208.505 58.213ZM205.248 66.7125C203.659 69.0371 201.725 70.7707 199.397 72.0232L206.978 86.1132C211.62 83.6157 215.462 80.122 218.456 75.7421L205.248 66.7125ZM199.427 72.0072C197.22 73.1823 194.605 73.8523 191.398 73.8523V89.8523C196.94 89.8523 202.185 88.6662 206.948 86.1291L199.427 72.0072ZM192.591 80.4773C196.252 80.4773 199.74 79.4063 202.755 77.1906L193.279 64.298C193.15 64.393 193.02 64.4773 192.591 64.4773V80.4773ZM202.768 77.1809C205.475 75.183 207.543 72.592 209.067 69.6561L194.865 62.2871C194.305 63.3663 193.741 63.9572 193.266 64.3077L202.768 77.1809ZM209.054 69.6812C210.56 66.8023 211.541 63.6753 212.077 60.3833L196.286 57.8099C195.989 59.6315 195.492 61.0879 194.878 62.262L209.054 69.6812ZM212.074 60.4022C212.601 57.219 212.702 54.0212 212.134 50.9408L196.4 53.8433C196.551 54.6644 196.596 55.9363 196.289 57.791L212.074 60.4022ZM212.137 50.9543C211.551 47.7501 210.186 44.5689 207.604 42.0295L196.384 53.4364C196.333 53.3863 196.294 53.3385 196.267 53.3002C196.24 53.2626 196.233 53.2449 196.239 53.2574C196.252 53.284 196.328 53.4516 196.397 53.8298L212.137 50.9543ZM207.651 42.0761C204.675 39.0999 200.883 38.0284 197.307 38.0284V54.0284C197.547 54.0284 197.484 54.0631 197.236 53.9729C196.958 53.8717 196.625 53.6771 196.337 53.3898L207.651 42.0761ZM197.307 38.0284C193.614 38.0284 190.118 39.1266 187.101 41.3532L196.603 54.2264C196.768 54.1045 196.908 54.0284 197.307 54.0284V38.0284ZM187.151 41.3166C184.396 43.3172 182.312 45.9412 180.788 48.9052L195.018 56.2198C195.578 55.1308 196.126 54.5729 196.553 54.263L187.151 41.3166ZM180.788 48.9052C179.311 51.7785 178.35 54.9014 177.818 58.1884L193.613 60.7434C193.915 58.8789 194.412 57.3995 195.018 56.2198L180.788 48.9052ZM177.815 58.209C177.314 61.3571 177.223 64.5026 177.748 67.5348L193.513 64.8061C193.356 63.899 193.322 62.5747 193.616 60.7228L177.815 58.209ZM177.75 67.5476C178.313 70.7709 179.677 73.9592 182.265 76.5045L193.485 65.0977C193.536 65.1478 193.577 65.1974 193.607 65.2401C193.637 65.2821 193.648 65.3061 193.646 65.3021C193.642 65.293 193.573 65.1468 193.511 64.7933L177.75 67.5476ZM182.313 76.5515C185.296 79.4365 189.046 80.4773 192.591 80.4773V64.4773C192.339 64.4773 192.378 64.4415 192.599 64.5202C192.849 64.6089 193.161 64.784 193.437 65.0508L182.313 76.5515ZM228.102 79.1534L223.418 85.6388L223.447 85.6599L223.477 85.6806L228.102 79.1534ZM222.988 71.5682L215.325 73.863L215.332 73.8889L215.34 73.9148L222.988 71.5682ZM222.704 59.2386L230.595 60.5588L230.596 60.5538L222.704 59.2386ZM227.193 46.767L233.896 51.1337L233.902 51.125L233.908 51.1162L227.193 46.767ZM234.863 39.2955L238.76 46.2824L238.777 46.2729L238.794 46.2633L234.863 39.2955ZM249.977 38.0455L246.084 45.0345L246.137 45.0637L246.19 45.0921L249.977 38.0455ZM253.471 41.1136L246.799 45.5275L246.815 45.5514L246.831 45.5751L253.471 41.1136ZM255.176 44.6932L247.461 46.8087L249.074 52.6932H255.176V44.6932ZM255.545 44.6932V52.6932H262.317L263.435 46.015L255.545 44.6932ZM259.21 22.8182V14.8182H252.439L251.32 21.4963L259.21 22.8182ZM271.284 22.8182L279.176 24.1284L280.722 14.8182H271.284V22.8182ZM261.625 81V89H268.406L269.517 82.3102L261.625 81ZM249.693 81L241.802 79.6848L240.249 89H249.693V81ZM250.858 74.0114L258.749 75.3266L260.301 66.0114H250.858V74.0114ZM250.346 74.0114V66.0114H245.912L243.562 69.7714L250.346 74.0114ZM247.335 77.6193L252.857 83.4082L252.859 83.4062L247.335 77.6193ZM242.846 80.5455L239.619 73.2253L239.605 73.2317L239.59 73.2382L242.846 80.5455ZM247.278 70.4886L251.79 77.095L251.817 77.0764L251.844 77.0575L247.278 70.4886ZM251.199 65.9716L258.211 69.8217V69.8217L251.199 65.9716ZM253.415 59.1818L245.525 57.8573L245.52 57.8853L245.516 57.9134L253.415 59.1818ZM253.443 52.4205L261.26 50.7178L253.443 52.4205ZM251 47.9886L245.739 54.0152L245.762 54.0357L245.786 54.056L251 47.9886ZM240.971 48.0455L236.367 41.503L236.348 41.5165L236.329 41.5301L240.971 48.0455ZM237.193 52.5341L230.109 48.8168L230.095 48.8444L230.08 48.8721L237.193 52.5341ZM235.091 59.1818L227.198 57.8762L227.196 57.8857L235.091 59.1818ZM235.006 65.9148L227.138 67.366L227.141 67.3798L235.006 65.9148ZM237.307 70.4602L231.841 76.3024L231.867 76.3261L231.892 76.3496L237.307 70.4602ZM236.71 73.7102C234.809 73.7102 233.608 73.2501 232.728 72.6262L223.477 85.6806C227.407 88.4658 231.945 89.7102 236.71 89.7102V73.7102ZM232.786 72.668C232.06 72.1433 231.246 71.207 230.637 69.2216L215.34 73.9148C216.777 78.5961 219.372 82.7166 223.418 85.6388L232.786 72.668ZM230.652 69.2734C230.113 67.4724 229.905 64.6831 230.595 60.5588L214.814 57.9185C213.875 63.5291 213.856 68.9595 215.325 73.863L230.652 69.2734ZM230.596 60.5538C231.297 56.3477 232.483 53.3028 233.896 51.1337L220.49 42.4004C217.585 46.8601 215.779 52.1295 214.813 57.9234L230.596 60.5538ZM233.908 51.1162C235.48 48.6881 237.129 47.1918 238.76 46.2824L230.967 32.3085C226.689 34.6946 223.224 38.1793 220.478 42.4179L233.908 51.1162ZM238.794 46.2633C240.623 45.2313 242.356 44.7955 244.096 44.7955V28.7955C239.436 28.7955 235.013 30.0262 230.933 32.3276L238.794 46.2633ZM244.096 44.7955C245.692 44.7955 246.171 45.0829 246.084 45.0345L253.87 31.0564C250.79 29.3413 247.349 28.7955 244.096 28.7955V44.7955ZM246.19 45.0921C246.47 45.2429 246.629 45.3649 246.709 45.4348C246.749 45.47 246.772 45.4948 246.784 45.5082C246.79 45.5151 246.794 45.5199 246.796 45.5228C246.798 45.5256 246.799 45.5271 246.799 45.5275L260.144 36.6997C258.488 34.1967 256.251 32.3351 253.765 30.9989L246.19 45.0921ZM246.831 45.5751C247.256 46.2075 247.408 46.6168 247.461 46.8087L262.891 42.5777C262.3 40.4211 261.316 38.444 260.112 36.6521L246.831 45.5751ZM255.176 52.6932H255.545V36.6932H255.176V52.6932ZM263.435 46.015L267.1 24.14L251.32 21.4963L247.655 43.3713L263.435 46.015ZM259.21 30.8182H271.284V14.8182H259.21V30.8182ZM263.392 21.508L253.733 79.6898L269.517 82.3102L279.176 24.1284L263.392 21.508ZM261.625 73H249.693V89H261.625V73ZM257.584 82.3152L258.749 75.3266L242.967 72.6962L241.802 79.6848L257.584 82.3152ZM250.858 66.0114H250.346V82.0114H250.858V66.0114ZM243.562 69.7714C243.223 70.3141 242.675 71.0079 241.811 71.8325L252.859 83.4062C254.495 81.8444 255.954 80.1329 257.13 78.2514L243.562 69.7714ZM241.813 71.8305C241.335 72.287 240.643 72.7739 239.619 73.2253L246.074 87.8657C248.572 86.764 250.873 85.3001 252.857 83.4082L241.813 71.8305ZM239.59 73.2382C239.08 73.4653 238.189 73.7102 236.71 73.7102V89.7102C239.928 89.7102 243.127 89.1787 246.103 87.8527L239.59 73.2382ZM242.051 80.0795C245.546 80.0795 248.869 79.0895 251.79 77.095L242.767 63.8822C242.581 64.009 242.42 64.0795 242.051 64.0795V80.0795ZM251.844 77.0575C254.567 75.165 256.654 72.6579 258.211 69.8217L244.186 62.1215C243.622 63.1489 243.096 63.6532 242.712 63.9198L251.844 77.0575ZM258.211 69.8217C259.789 66.9485 260.779 63.7803 261.313 60.4502L245.516 57.9134C245.217 59.7727 244.73 61.131 244.186 62.1215L258.211 69.8217ZM261.304 60.5063C261.854 57.2322 261.954 53.9039 261.26 50.7178L245.626 54.1231C245.766 54.7627 245.847 55.942 245.525 57.8573L261.304 60.5063ZM261.26 50.7178C260.558 47.4966 259.019 44.3319 256.214 41.9213L245.786 54.056C245.713 53.9938 245.651 53.9283 245.601 53.8662C245.552 53.8048 245.524 53.759 245.514 53.7401C245.494 53.7034 245.557 53.8036 245.626 54.1231L261.26 50.7178ZM256.261 41.9621C253.28 39.3598 249.671 38.4261 246.256 38.4261V54.4261C246.542 54.4261 246.565 54.4644 246.416 54.4153C246.341 54.3903 246.233 54.3468 246.107 54.2757C245.98 54.2042 245.854 54.1162 245.739 54.0152L256.261 41.9621ZM246.256 38.4261C242.724 38.4261 239.333 39.4163 236.367 41.503L245.575 54.5879C245.678 54.5155 245.81 54.4261 246.256 54.4261V38.4261ZM236.329 41.5301C233.639 43.4469 231.602 45.9718 230.109 48.8168L244.277 56.2514C244.792 55.2706 245.274 54.8031 245.614 54.5608L236.329 41.5301ZM230.08 48.8721C228.651 51.6483 227.726 54.6849 227.198 57.8763L242.983 60.4874C243.289 58.6408 243.765 57.2456 244.306 56.1961L230.08 48.8721ZM227.196 57.8857C226.672 61.0782 226.57 64.2838 227.138 67.366L242.873 64.4635C242.722 63.6442 242.676 62.3612 242.985 60.4779L227.196 57.8857ZM227.141 67.3798C227.742 70.6091 229.165 73.7991 231.841 76.3024L242.772 64.6181C242.833 64.6754 242.885 64.7342 242.925 64.7881C242.964 64.8413 242.984 64.8777 242.988 64.8867C242.997 64.9036 242.932 64.7832 242.87 64.4498L227.141 67.3798ZM231.892 76.3496C234.884 79.0997 238.573 80.0795 242.051 80.0795V64.0795C241.773 64.0795 241.775 64.0414 241.958 64.1036C242.05 64.1352 242.175 64.188 242.317 64.2714C242.459 64.3553 242.597 64.4568 242.721 64.5709L231.892 76.3496ZM280.268 79.0114L275.881 85.701L275.896 85.711L275.911 85.7209L280.268 79.0114ZM274.104 71.0568L266.54 73.6622L266.548 73.6875L266.557 73.7128L274.104 71.0568ZM273.45 59.1534L281.346 60.4418L281.347 60.4335L281.348 60.4252L273.45 59.1534ZM277.939 47.4205L271.317 42.9312L277.939 47.4205ZM286.604 39.608L290.348 46.6773L290.363 46.6694L290.378 46.6615L286.604 39.608ZM309.473 39.6648L305.085 46.3544L305.101 46.3644L305.116 46.3743L309.473 39.6648ZM315.638 47.6193L308.087 50.2621V50.2621L315.638 47.6193ZM316.319 59.5227L324.211 60.8325L324.213 60.8218L324.215 60.8111L316.319 59.5227ZM311.774 71.2273L305.17 66.7125V66.7125L311.774 71.2273ZM303.109 79.0682L306.87 86.1291L306.885 86.1212L306.9 86.1132L303.109 79.0682ZM297.939 70.7443L302.676 77.1906L302.683 77.1858L302.69 77.1809L297.939 70.7443ZM301.888 65.9716L294.8 62.262L294.793 62.2745L294.787 62.2871L301.888 65.9716ZM304.104 59.0966L296.211 57.791L296.209 57.8004L296.208 57.8099L304.104 59.0966ZM304.189 52.392L296.319 53.8298L296.321 53.8433L304.189 52.392ZM301.916 47.733L296.259 53.3898L296.283 53.4132L296.306 53.4364L301.916 47.733ZM291.774 47.7898L296.475 54.263L296.5 54.2448L296.525 54.2264L291.774 47.7898ZM285.638 59.4659L277.74 58.1884L277.739 58.1987L277.737 58.209L285.638 59.4659ZM285.552 66.1705L277.67 67.5348L277.672 67.5476L285.552 66.1705ZM287.797 70.8011L282.187 76.5045L282.211 76.5281L282.235 76.5515L287.797 70.8011ZM291.319 73.8523C287.986 73.8523 285.927 73.1469 284.625 72.3018L275.911 85.7209C280.443 88.6637 285.751 89.8523 291.319 89.8523V73.8523ZM284.656 72.3217C283.253 71.4018 282.28 70.1907 281.65 68.4009L266.557 73.7128C268.314 78.7033 271.45 82.7952 275.881 85.701L284.656 72.3217ZM281.667 68.4515C281.025 66.5876 280.763 64.0097 281.346 60.4418L265.555 57.865C264.659 63.3501 264.833 68.7078 266.54 73.6622L281.667 68.4515ZM281.348 60.4252C281.904 56.9716 283.016 54.1871 284.56 51.9097L271.317 42.9312C268.316 47.3583 266.435 52.3958 265.552 57.8817L281.348 60.4252ZM284.56 51.9097C286.116 49.6155 288.025 47.9078 290.348 46.6773L282.859 32.5386C278.174 35.0202 274.307 38.5209 271.317 42.9312L284.56 51.9097ZM290.378 46.6615C292.602 45.4715 295.231 44.7955 298.45 44.7955V28.7955C292.881 28.7955 287.613 29.9944 282.829 32.5544L290.378 46.6615ZM298.45 44.7955C301.743 44.7955 303.784 45.5007 305.085 46.3544L313.86 32.9751C309.329 30.0031 304.021 28.7955 298.45 28.7955V44.7955ZM305.116 46.3743C306.487 47.2643 307.454 48.4554 308.087 50.2621L323.188 44.9765C321.434 39.9651 318.292 35.8531 313.83 32.9552L305.116 46.3743ZM308.087 50.2621C308.735 52.1147 309.004 54.6784 308.424 58.2343L324.215 60.8111C325.112 55.314 324.926 49.9421 323.188 44.9765L308.087 50.2621ZM308.427 58.213C307.858 61.643 306.734 64.4241 305.17 66.7125L318.378 75.7421C321.397 71.3259 323.303 66.304 324.211 60.8325L308.427 58.213ZM305.17 66.7125C303.581 69.0371 301.647 70.7707 299.319 72.0232L306.9 86.1132C311.542 83.6157 315.384 80.122 318.378 75.7421L305.17 66.7125ZM299.348 72.0072C297.142 73.1823 294.527 73.8523 291.319 73.8523V89.8523C296.862 89.8523 302.106 88.6662 306.87 86.1291L299.348 72.0072ZM292.513 80.4773C296.174 80.4773 299.662 79.4063 302.676 77.1906L293.201 64.298C293.072 64.393 292.942 64.4773 292.513 64.4773V80.4773ZM302.69 77.1809C305.396 75.183 307.465 72.592 308.989 69.6561L294.787 62.2871C294.227 63.3663 293.663 63.9572 293.188 64.3077L302.69 77.1809ZM308.976 69.6812C310.482 66.8023 311.463 63.6753 311.999 60.3833L296.208 57.8099C295.911 59.6315 295.414 61.0879 294.8 62.262L308.976 69.6812ZM311.996 60.4022C312.523 57.219 312.624 54.0212 312.056 50.9408L296.321 53.8433C296.473 54.6644 296.518 55.9363 296.211 57.791L311.996 60.4022ZM312.059 50.9543C311.473 47.7501 310.108 44.5689 307.526 42.0295L296.306 53.4364C296.255 53.3863 296.216 53.3385 296.189 53.3002C296.162 53.2626 296.154 53.2449 296.161 53.2574C296.174 53.284 296.25 53.4516 296.319 53.8298L312.059 50.9543ZM307.573 42.0761C304.597 39.0999 300.805 38.0284 297.229 38.0284V54.0284C297.468 54.0284 297.406 54.0631 297.158 53.9729C296.88 53.8717 296.546 53.6771 296.259 53.3898L307.573 42.0761ZM297.229 38.0284C293.536 38.0284 290.04 39.1266 287.023 41.3532L296.525 54.2264C296.69 54.1045 296.83 54.0284 297.229 54.0284V38.0284ZM287.073 41.3166C284.318 43.3172 282.234 45.9412 280.71 48.9052L294.94 56.2198C295.5 55.1308 296.048 54.5729 296.475 54.263L287.073 41.3166ZM280.71 48.9052C279.233 51.7785 278.272 54.9014 277.74 58.1884L293.535 60.7434C293.837 58.8789 294.334 57.3995 294.94 56.2198L280.71 48.9052ZM277.737 58.209C277.236 61.3571 277.145 64.5026 277.67 67.5348L293.435 64.8061C293.278 63.899 293.244 62.5747 293.538 60.7228L277.737 58.209ZM277.672 67.5476C278.235 70.7709 279.599 73.9592 282.187 76.5045L293.407 65.0977C293.458 65.1478 293.499 65.1974 293.529 65.2401C293.559 65.2821 293.57 65.3061 293.568 65.3021C293.564 65.293 293.495 65.1468 293.433 64.7933L277.672 67.5476ZM282.235 76.5515C285.218 79.4365 288.968 80.4773 292.513 80.4773V64.4773C292.261 64.4773 292.3 64.4415 292.521 64.5202C292.771 64.6089 293.083 64.784 293.358 65.0508L282.235 76.5515Z" fill="#19214F" mask="url(#path-3-outside-1_12_32)"/>
</svg>
